<?xml version="1.0" encoding="UTF-8" standalone="no"?>
<!DOCTYPE svg PUBLIC "-//W3C//DTD SVG 1.1//EN" "http://www.w3.org/Graphics/SVG/1.1/DTD/svg11.dtd">
<svg width="100%" height="100%" viewBox="0 0 49 36" version="1.1" xmlns="http://www.w3.org/2000/svg" xmlns:xlink="http://www.w3.org/1999/xlink" xml:space="preserve" xmlns:serif="http://www.serif.com/" style="fill-rule:evenodd;clip-rule:evenodd;">
    <g transform="matrix(1,0,0,1,1,1)">
        <g id="Page-1">
            <g id="logos">
                <g id="Group-Copy-5">
                    <path id="Rectangle-Copy-68" d="M47,3C47,1.344 45.656,0 44,0L3,0C1.344,0 0,1.344 0,3L0,31C0,32.656 1.344,34 3,34L44,34C45.656,34 47,32.656 47,31L47,3Z" style="fill:none;stroke:black;stroke-width:2px;"/>
                    <g id="tldr:">
                        <g transform="matrix(1,0,0,1,4.48991,25.4922)">
                            <text x="0px" y="0px" style="font-family:'Times-Bold', 'Times';font-weight:700;font-size:15.806px;">tld</text>
                        </g>
                        <g transform="matrix(1,0,0,1,22.9359,25.4922)">
                            <text x="0px" y="0px" style="font-family:'Times-Bold', 'Times';font-weight:700;font-size:15.806px;">r</text>
                        </g>
                        <g transform="matrix(1,0,0,1,30.1443,25.4922)">
                            <path d="M0.885,-1.359C0.885,-1.56 0.922,-1.749 0.996,-1.928C1.07,-2.108 1.172,-2.263 1.304,-2.395C1.436,-2.526 1.591,-2.629 1.77,-2.703C1.949,-2.777 2.139,-2.814 2.339,-2.814C2.54,-2.814 2.729,-2.777 2.908,-2.703C3.088,-2.629 3.243,-2.526 3.375,-2.395C3.506,-2.263 3.609,-2.108 3.683,-1.928C3.757,-1.749 3.794,-1.56 3.794,-1.359C3.794,-1.159 3.757,-0.969 3.683,-0.79C3.609,-0.611 3.506,-0.456 3.375,-0.324C3.243,-0.192 3.088,-0.09 2.908,-0.016C2.729,0.058 2.54,0.095 2.339,0.095C2.139,0.095 1.949,0.058 1.77,-0.016C1.591,-0.09 1.436,-0.192 1.304,-0.324C1.172,-0.456 1.07,-0.611 0.996,-0.79C0.922,-0.969 0.885,-1.159 0.885,-1.359ZM0.885,-6.417C0.885,-6.618 0.922,-6.807 0.996,-6.986C1.07,-7.166 1.172,-7.321 1.304,-7.453C1.436,-7.584 1.591,-7.687 1.77,-7.761C1.949,-7.835 2.139,-7.872 2.339,-7.872C2.54,-7.872 2.729,-7.835 2.908,-7.761C3.088,-7.687 3.243,-7.584 3.375,-7.453C3.506,-7.321 3.609,-7.166 3.683,-6.986C3.757,-6.807 3.794,-6.618 3.794,-6.417C3.794,-6.217 3.757,-6.028 3.683,-5.848C3.609,-5.669 3.506,-5.514 3.375,-5.382C3.243,-5.25 3.088,-5.148 2.908,-5.074C2.729,-5 2.54,-4.963 2.339,-4.963C2.139,-4.963 1.949,-5 1.77,-5.074C1.591,-5.148 1.436,-5.25 1.304,-5.382C1.172,-5.514 1.07,-5.669 0.996,-5.848C0.922,-6.028 0.885,-6.217 0.885,-6.417Z" style="fill-rule:nonzero;"/>
                        </g>
                    </g>
                    <g transform="matrix(1,0,0,-1,3.95394,6.43686)">
                        <rect x="0" y="0" width="38" height="2" style="fill:url(#_Linear1);"/>
                    </g>
                    <g transform="matrix(1,0,0,-1,4.5,10.2727)">
                        <rect x="0" y="0" width="38" height="2" style="fill:url(#_Linear2);"/>
                    </g>
                </g>
            </g>
        </g>
    </g>
    <g id="Layer1">
    </g>
    <defs>
        <linearGradient id="_Linear1" x1="0" y1="0" x2="1" y2="0" gradientUnits="userSpaceOnUse" gradientTransform="matrix(6.27019e-14,-1024,-1024,-6.27019e-14,-0.807227,1)"><stop offset="0" style="stop-color:rgb(0,184,59);stop-opacity:0"/><stop offset="0.28" style="stop-color:rgb(5,136,254);stop-opacity:0"/><stop offset="0.69" style="stop-color:rgb(245,186,91);stop-opacity:0"/><stop offset="1" style="stop-color:rgb(240,36,36);stop-opacity:0"/></linearGradient>
        <linearGradient id="_Linear2" x1="0" y1="0" x2="1" y2="0" gradientUnits="userSpaceOnUse" gradientTransform="matrix(38.8072,-0,0,-38.8072,-0.807227,1)"><stop offset="0" style="stop-color:rgb(0,184,59);stop-opacity:1"/><stop offset="0.28" style="stop-color:rgb(5,136,254);stop-opacity:1"/><stop offset="0.69" style="stop-color:rgb(245,186,91);stop-opacity:1"/><stop offset="1" style="stop-color:rgb(240,36,36);stop-opacity:1"/></linearGradient>
    </defs>
</svg>
