<?xml version="1.0" encoding="UTF-8"?>
<svg width="100%" height="100%" viewBox="0 0 354 270" version="1.1" xmlns="http://www.w3.org/2000/svg" xmlns:xlink="http://www.w3.org/1999/xlink">
    <g id="Page-1">
        <g id="logo-1">
            <g id="Group">
                <path id="Rectangle-Copy-66" d="M352.5,36.563C352.5,33.804 350.26,31.563 347.5,31.563L35.083,31.563C32.324,31.563 30.083,33.804 30.083,36.563L30.083,263.5C30.083,266.26 32.324,268.5 35.083,268.5L347.5,268.5C350.26,268.5 352.5,266.26 352.5,263.5L352.5,36.563Z" style="fill:white;stroke:rgb(24,99,226);stroke-width:3px;"/>
                <path id="Rectangle-Copy-67" d="M338.708,21.532C338.708,18.772 336.468,16.532 333.708,16.532L21.292,16.532C18.532,16.532 16.292,18.772 16.292,21.532L16.292,248.468C16.292,251.228 18.532,253.468 21.292,253.468L333.708,253.468C336.468,253.468 338.708,251.228 338.708,248.468L338.708,21.532Z" style="fill:white;stroke:rgb(24,99,226);stroke-width:3px;"/>
                <path id="Rectangle-Copy-68" d="M325.417,5C325.417,2.24 323.176,0 320.417,0L5,0C2.24,0 0,2.24 0,5L0,234.937C0,237.696 2.24,239.937 5,239.937L320.417,239.937C323.176,239.937 325.417,237.696 325.417,234.937L325.417,5Z" style="fill:rgb(24,99,226);"/>
                <g id="tldr:">
                    <g transform="matrix(1,0,0,1,24,169)">
                        <g transform="matrix(85,0,0,85,0,0)">
                            <path d="M0.016,-0.417L0.016,-0.444C0.025,-0.452 0.036,-0.462 0.049,-0.473C0.066,-0.489 0.082,-0.506 0.098,-0.522C0.128,-0.556 0.155,-0.591 0.18,-0.629L0.206,-0.629L0.206,-0.46L0.301,-0.46L0.301,-0.417L0.206,-0.417L0.206,-0.116C0.206,-0.102 0.208,-0.09 0.212,-0.081C0.218,-0.066 0.229,-0.059 0.244,-0.059C0.257,-0.059 0.268,-0.063 0.277,-0.073C0.286,-0.082 0.294,-0.095 0.303,-0.111L0.327,-0.099C0.315,-0.072 0.301,-0.049 0.285,-0.032C0.257,-0.002 0.222,0.013 0.18,0.013C0.157,0.013 0.136,0.009 0.119,-0C0.085,-0.017 0.068,-0.048 0.068,-0.092L0.068,-0.417L0.016,-0.417Z" style="fill:white;fill-rule:nonzero;"/>
                        </g>
                        <g transform="matrix(85,0,0,85,28.3057,0)">
                            <path d="M0.016,-0.024C0.034,-0.028 0.046,-0.034 0.053,-0.041C0.061,-0.048 0.064,-0.062 0.064,-0.084L0.064,-0.594C0.064,-0.615 0.061,-0.629 0.054,-0.635C0.047,-0.642 0.035,-0.647 0.016,-0.651L0.016,-0.676L0.206,-0.676L0.206,-0.084C0.206,-0.062 0.209,-0.048 0.216,-0.041C0.223,-0.034 0.236,-0.028 0.254,-0.024L0.254,-0L0.016,-0L0.016,-0.024Z" style="fill:white;fill-rule:nonzero;"/>
                        </g>
                        <g transform="matrix(85,0,0,85,51.9214,0)">
                            <path d="M0.252,-0.042C0.273,-0.042 0.293,-0.052 0.31,-0.071C0.327,-0.09 0.335,-0.104 0.335,-0.112L0.335,-0.355C0.335,-0.363 0.328,-0.375 0.313,-0.391C0.299,-0.407 0.279,-0.415 0.255,-0.415C0.22,-0.415 0.196,-0.39 0.183,-0.341C0.176,-0.315 0.173,-0.278 0.173,-0.229C0.173,-0.178 0.176,-0.139 0.183,-0.113C0.195,-0.066 0.218,-0.042 0.252,-0.042ZM0.025,-0.216C0.025,-0.295 0.044,-0.358 0.082,-0.404C0.119,-0.449 0.165,-0.472 0.217,-0.472C0.244,-0.472 0.267,-0.466 0.288,-0.453C0.3,-0.445 0.316,-0.431 0.335,-0.411L0.335,-0.594C0.335,-0.619 0.331,-0.634 0.321,-0.64C0.311,-0.646 0.291,-0.65 0.26,-0.651L0.26,-0.676L0.476,-0.676L0.476,-0.101C0.476,-0.08 0.479,-0.065 0.487,-0.057C0.495,-0.049 0.51,-0.044 0.533,-0.042L0.533,-0.02C0.477,-0.014 0.441,-0.01 0.425,-0.007C0.409,-0.004 0.38,0.003 0.339,0.014L0.339,-0.052C0.32,-0.032 0.303,-0.018 0.287,-0.008C0.262,0.007 0.236,0.014 0.207,0.014C0.158,0.014 0.116,-0.007 0.08,-0.048C0.043,-0.089 0.025,-0.145 0.025,-0.216Z" style="fill:white;fill-rule:nonzero;"/>
                        </g>
                    </g>
                    <g transform="matrix(1,0,0,1,123.194,169)">
                        <g transform="matrix(85,0,0,85,0,0)">
                            <path d="M0.018,-0.024C0.037,-0.026 0.051,-0.031 0.058,-0.038C0.066,-0.044 0.07,-0.058 0.07,-0.077L0.071,-0.106L0.071,-0.378C0.071,-0.399 0.068,-0.413 0.061,-0.421C0.053,-0.428 0.039,-0.433 0.018,-0.436L0.018,-0.46L0.208,-0.46L0.208,-0.382C0.229,-0.41 0.25,-0.431 0.271,-0.448C0.292,-0.464 0.316,-0.472 0.343,-0.472C0.364,-0.472 0.382,-0.466 0.399,-0.452C0.415,-0.439 0.423,-0.42 0.423,-0.395C0.423,-0.375 0.418,-0.359 0.406,-0.346C0.394,-0.333 0.379,-0.327 0.361,-0.327C0.34,-0.327 0.321,-0.337 0.306,-0.357C0.29,-0.377 0.28,-0.387 0.273,-0.387C0.26,-0.387 0.247,-0.378 0.233,-0.362C0.22,-0.346 0.213,-0.322 0.213,-0.292L0.213,-0.103C0.213,-0.069 0.218,-0.049 0.227,-0.04C0.237,-0.032 0.256,-0.027 0.285,-0.024L0.285,-0L0.018,-0L0.018,-0.024Z" style="fill:white;fill-rule:nonzero;"/>
                        </g>
                    </g>
                    <g transform="matrix(1,0,0,1,161.958,169)">
                        <g transform="matrix(85,0,0,85,0,0)">
                            <path d="M0.216,-0.07L0.124,0.021L0.032,-0.07L0.124,-0.162L0.216,-0.07ZM0.216,-0.324L0.124,-0.232L0.032,-0.324L0.124,-0.416L0.216,-0.324Z" style="fill:white;fill-rule:nonzero;"/>
                        </g>
                    </g>
                </g>
                <path id="Line" d="M24,53.5L302,53.5" style="fill:none;stroke:white;stroke-width:3px;stroke-linecap:square;"/>
            </g>
        </g>
    </g>
</svg>
